<?xml version="1.0" encoding="UTF-8" standalone="no"?>
<!-- Created with Inkscape (http://www.inkscape.org/) -->

<svg
   xmlns:dc="http://purl.org/dc/elements/1.1/"
   xmlns:cc="http://creativecommons.org/ns#"
   xmlns:rdf="http://www.w3.org/1999/02/22-rdf-syntax-ns#"
   xmlns:svg="http://www.w3.org/2000/svg"
   xmlns="http://www.w3.org/2000/svg"
   xmlns:sodipodi="http://sodipodi.sourceforge.net/DTD/sodipodi-0.dtd"
   xmlns:inkscape="http://www.inkscape.org/namespaces/inkscape"
   width="400"
   height="385.39413"
   id="svg2"
   sodipodi:version="0.32"
   inkscape:version="0.91 r13725"
   sodipodi:modified="true"
   version="1.1"
   sodipodi:docname="open_Bnb.svg"
   inkscape:export-filename="/Users/lucacorsato/Documents/lavori/open_Bnb.png"
   inkscape:export-xdpi="204"
   inkscape:export-ydpi="204">
  <defs
     id="defs4">
    <style
       id="style6"
       type="text/css">
    .str1 {stroke:#1F1A17;stroke-width:0.1764}
    .str2 {stroke:#1F1A17;stroke-width:0.3528}
    .str0 {stroke:#131516;stroke-width:0.3528}
    .str4 {stroke:#EEB300;stroke-width:0.3528}
    .str3 {stroke:#F5D300;stroke-width:0.3528}
    .fil6 {fill:none}
    .fil7 {fill:#1F1A17}
    .fil9 {fill:white}
    .fil12 {fill:#009F3C}
    .fil10 {fill:#00A03B}
    .fil5 {fill:#2DA638}
    .fil8 {fill:#4E9145}
    .fil11 {fill:#65B857}
    .fil1 {fill:#DA2724}
    .fil4 {fill:#E4A615}
    .fil3 {fill:#EFC899}
    .fil13 {fill:#F3E400}
    .fil0 {fill:#F5CB00}
    .fil2 {fill:#1F1A17;fill-rule:nonzero}
    .fil14 {fill:#EEB300;fill-rule:nonzero}
  </style>
  </defs>
  <sodipodi:namedview
     id="base"
     pagecolor="#ffffff"
     bordercolor="#666666"
     borderopacity="1.0"
     gridtolerance="10000"
     guidetolerance="10"
     objecttolerance="10"
     inkscape:pageopacity="0.0"
     inkscape:pageshadow="2"
     inkscape:zoom="0.70710678"
     inkscape:cx="189.18735"
     inkscape:cy="315.7087"
     inkscape:document-units="px"
     inkscape:current-layer="layer1"
     inkscape:window-width="1379"
     inkscape:window-height="793"
     inkscape:window-x="0"
     inkscape:window-y="0"
     showgrid="false"
     fit-margin-top="0"
     fit-margin-left="0"
     fit-margin-right="0"
     fit-margin-bottom="0"
     inkscape:window-maximized="0" />
  <metadata
     id="metadata7">
    <rdf:RDF>
      <cc:Work
         rdf:about="">
        <dc:format>image/svg+xml</dc:format>
        <dc:type
           rdf:resource="http://purl.org/dc/dcmitype/StillImage" />
        <dc:title></dc:title>
      </cc:Work>
    </rdf:RDF>
  </metadata>
  <g
     inkscape:label="Layer 1"
     inkscape:groupmode="layer"
     id="layer1"
     transform="translate(291.9764,-864.45892)">
    <path
       style="fill:#000000"
       d="m -116.2644,1076.8016 c -3.64874,-0.427 -6.54152,-2.8557 -7.79127,-6.5414 -0.42632,-1.2572 -0.4039,-3.9848 0.0445,-5.4079 0.85282,-2.7068 2.83286,-4.8114 5.60522,-5.9575 l 1.06636,-0.4407 47.224542,0 47.224557,0 0.903696,0.3411 c 2.348904,0.8862 4.258892,2.5746 5.237004,4.6293 0.750032,1.5756 0.973452,2.5198 0.980917,4.1457 0.0074,1.6144 -0.224455,2.6048 -0.982897,4.1982 -1.096067,2.3023 -3.254305,4.0509 -5.986382,4.8502 -0.861879,0.2519 -3.525893,0.2683 -46.691376,0.287 -25.177554,0.02 -46.253221,-0.035 -46.834831,-0.1034 z"
       id="path4450" />
    <path
       style="fill:#000000"
       d="m -137.29698,1077.3579 c -2.43236,-0.5611 -3.67629,-1.3945 -6.40615,-4.2923 -1.17739,-1.2497 -5.73423,-6.111 -10.12633,-10.8032 -4.39208,-4.6918 -8.94937,-9.559 -10.12729,-10.8158 -2.5013,-2.6688 -3.11412,-3.4107 -3.57959,-4.3343 -1.38819,-2.7541 -1.40236,-5.8336 -0.0396,-8.5768 0.74901,-1.5077 2.45548,-3.2216 3.96267,-3.9798 1.48836,-0.7488 2.5779,-1.0088 4.22727,-1.0088 1.65391,0 2.80768,0.2705 4.33405,1.016 1.43066,0.6987 2.12613,1.3863 10.83613,10.7121 3.63772,3.895 8.73037,9.3396 11.317,12.0988 2.58661,2.7594 4.93896,5.3861 5.22745,5.8369 1.40836,2.2018 1.86037,5.4131 1.09806,7.8015 -0.59355,1.8595 -2.1359,3.905 -3.75463,4.9794 -1.9079,1.2665 -4.87767,1.8487 -6.96916,1.3663 z"
       id="path4448" />
    <path
       style="fill:#000000"
       d="m -189.43636,1079.8955 0.04,-52.5182 0.33847,-1.1883 c 0.52467,-1.8419 1.32413,-3.2189 2.63046,-4.531 1.2555,-1.2608 2.44799,-1.9759 4.06846,-2.4392 2.92038,-0.8352 5.90644,-0.3709 8.43794,1.3121 1.39173,0.9251 2.29903,1.988 3.11369,3.6473 1.21213,2.4691 1.13866,0.587 1.13866,29.1661 l 0,25.4467 77.53564,0 77.53565,0 0.04345,-18.8515 0.04343,-18.8519 0.340534,-1.2186 c 0.888324,-3.1792 2.701272,-5.5226 5.2222558,-6.7505 2.9181128,-1.4213 5.8619557,-1.4217 8.8186531,0 2.5092405,1.2053 4.3357489,3.5633 5.2301964,6.7519 l 0.3418759,1.2186 0.040307,45.5108 0.040287,45.5109 -9.9041321,0 -9.9041441,0 0,-14.7006 0,-14.7005 -77.463517,0 -77.463496,0 0,14.8528 0,14.8529 -10.13236,0 -10.13235,0 0.04,-52.5184 z"
       id="path4446" />
    <g
       id="g4417"
       transform="matrix(0.92824008,0,0,0.92824008,-291.9764,857.15553)">
      <g
         id="g4365">
        <g
           id="g4367">
          <path
             id="path4369"
             d="m 296.924,403.243 c -22.656,10.875 -47.5,17.813 -73.734,19.813 l 0,-64.813 c 14.609,-1.625 28.672,-4.906 41.609,-10.594 l 32.125,55.594 z"
             inkscape:connector-curvature="0" />
          <path
             id="path4371"
             d="m 64.814,199.868 -64.813,0 c 8.219,-107.219 97.906,-192 207.188,-192 64.297,0 124.735,30.094 163.797,79.969 l 59.812,-34.563 0.125,197.844 -171.406,-98.813 55.094,-31.875 C 287.549,90.117 248.612,71.867 207.19,71.867 133.251,71.868 72.876,128.055 64.814,199.868 Z"
             inkscape:connector-curvature="0" />
          <path
             id="path4373"
             d="m 322.674,301.024 56,32.312 c -14.531,21.156 -32.875,39.47 -54,54.031 l -32.314,-56 c 11.564,-8.562 21.751,-18.781 30.314,-30.343 z"
             inkscape:connector-curvature="0" />
          <path
             id="path4375"
             d="m 191.189,358.243 0,64.813 c -26.25,-2 -51.094,-8.938 -73.719,-19.813 l 32.094,-55.594 c 12.969,5.687 27.031,8.969 41.625,10.594 z"
             inkscape:connector-curvature="0" />
          <path
             id="path4377"
             d="m 122.033,331.368 -32.313,56 C 68.564,372.806 50.22,354.493 35.689,333.337 l 56,-32.312 c 8.562,11.561 18.75,21.78 30.344,30.343 z"
             inkscape:connector-curvature="0" />
          <path
             id="path4379"
             d="M 75.376,273.461 19.813,305.555 C 8.938,282.93 2,258.118 0,231.868 l 64.813,0 c 1.626,14.593 4.907,28.656 10.563,41.593 z"
             inkscape:connector-curvature="0" />
        </g>
      </g>
      <g
         id="g4381" />
      <g
         id="g4383" />
      <g
         id="g4385" />
      <g
         id="g4387" />
      <g
         id="g4389" />
      <g
         id="g4391" />
      <g
         id="g4393" />
      <g
         id="g4395" />
      <g
         id="g4397" />
      <g
         id="g4399" />
      <g
         id="g4401" />
      <g
         id="g4403" />
      <g
         id="g4405" />
      <g
         id="g4407" />
      <g
         id="g4409" />
    </g>
    <g
       id="g4654"
       transform="matrix(0.31419068,0,0,0.31419068,-30.747698,789.10363)">
      <g
         id="g4529">
        <path
           stroke-miterlimit="10"
           d="m 425.30744,579.70182 c 2.233,5.32651 -12.197,10.48109 -15.322,14.36268 -3.683,4.92304 -19.897,19.66335 -20.182,24.19684 -0.912,14.49186 7.181,28.22649 13.281,52.793 5.489,22.10598 7.596,39.07626 10.025,44.12252 1.743,3.61924 8.625,13.60445 7.812,20.05687 -1.041,8.28093 -8.289,14.79496 -13.541,15.39817 -5.253,0.60321 -16.319,-3.92432 -20.27,-4.61597 -3.949,-0.68967 -41.71,-5.089 -61.806,-13.45638 -18.382,-7.65387 -48.915,-33.2986 -48.915,-33.2986 l 18.229,-31.0547 c 0,0 32.845,8.62476 51.953,17.98688 11.399,5.58488 38.542,29.75985 38.542,29.75985 0,0 -14.062,-15.39717 -16.537,-28.85454 -1.861,-10.12632 3.082,-45.76321 -2.604,-59.3925 -2.225,-5.33246 -11.806,-15.00961 -9.375,-21.73829 2.43,-6.72869 13.021,-3.88159 20.052,-8.15174 3.812,-2.31544 11.83,-13.86779 21.919,-17.42542 8.072,-2.84709 10.286,0.86258 13.541,0.34483 5.211,-3.79414 11.461,-5.17445 13.198,-1.0335 z"
           id="path11"
           style="fill:#ffffff;fill-opacity:1;stroke:#000000;stroke-width:2.99061131;stroke-linecap:round;stroke-linejoin:round;stroke-miterlimit:9.79310322;stroke-dasharray:none"
           inkscape:connector-curvature="0" />
        <path
           stroke-miterlimit="10"
           d="m 259.07144,831.60866 c -7.692,-1.05437 -1.566,-14.64391 -3.387,-19.27478 -1.875,-3.86271 -7.778,-20.76939 -12.177,-25.3635 -10.074,-10.51786 -29.091,-8.45086 -53.55,-15.48462 -22.009,-6.32821 -37.852,-13.00124 -43.465,-13.43253 -4.025,-0.31005 -16.83,-0.795 -22.046,-4.71932 -6.696,-5.03732 -8.749,-14.53062 -6.648,-19.3533 2.101,-4.82167 11.58,-12.08301 14.156,-15.13581 2.577,-3.0538 24.304,-27.99992 46.357,-42.45402 16.637,-10.90542 66.16,-24.24752 66.16,-24.24752 l 10.323,34.97207 c 0,0 -19.221,16.59266 -38.007,26.57787 -20.177,10.72455 -58.258,20.77435 -58.258,20.77435 0,0 21.733,-5.29967 34.697,-0.70059 9.756,3.46123 38.34,25.53343 53.061,27.45534 5.76,0.75128 18.982,-2.65431 23.632,2.80039 4.648,5.4547 -3.127,13.14732 -2.922,21.33384 0.112,4.43809 7.055,13.08869 5.111,23.55089 -1.556,8.37136 -6.832,10.72257 -8.008,13.78332 -0.76,3.8965 -2.4,9.27865 -5.029,8.91792 z"
           id="path14-1"
           style="fill:#ffffff;fill-opacity:1;stroke:#000000;stroke-width:2.99061131;stroke-linecap:round;stroke-linejoin:round;stroke-miterlimit:9.79310322;stroke-dasharray:none"
           inkscape:connector-curvature="0" />
        <path
           stroke-miterlimit="10"
           d="m 114.57444,571.76573 c 4.201,-4.3407 9.027,2.41581 18.402,7.41835 7.532,4.01972 33.333,5.6932 38.542,2.58773 12.529,-7.47003 20.71,-19.54708 39.068,-37.08081 16.521,-15.77679 29.214,-27.11151 32.398,-31.72549 2.282,-3.31019 7.162,-12.81144 13.19,-15.33854 7.738,-3.2446 17.039,-0.26434 20.19,3.95512 3.151,4.21748 7.556,15.32364 8.93,19.06809 1.373,3.74445 10.351,24.24354 13.138,50.35831 3.284,30.77547 -6.569,69.47708 -6.569,69.47708 l -41.761,-2.7974 c 0,0 -5.63,-37.30341 -3.285,-51.29145 1.499,-8.93481 12.124,-49.58815 12.124,-49.58815 0,0 -9.754,23.80231 -20.245,32.65961 -7.894,6.66608 -41.42,18.1598 -50.456,29.86817 -3.535,4.5802 -6.306,16.85401 -14.9,17.8895 -9.597,1.15573 -16.667,-4.65871 -22.917,-13.71575 -6.511,-1.55224 -14.679,-4.42915 -21.354,-8.02255 -6.25,-3.36384 -7.373,-8.8891 -7.292,-12.16351 -4.247,-1.90104 -10.362,-8.29483 -7.203,-11.55831 z"
           id="path17"
           style="fill:#ffffff;fill-opacity:1;stroke:#000000;stroke-width:2.99061131;stroke-linecap:round;stroke-linejoin:round;stroke-miterlimit:9.79310322;stroke-dasharray:none"
           inkscape:connector-curvature="0" />
        <path
           stroke-miterlimit="10"
           d="m 290.87544,656.13118 c -0.347,14.66478 9.723,26.05118 9.723,26.05118 0,0 5.095,-5.77866 8.594,-5.77866 4.08,0 30.209,13.45737 34.896,12.59479 1.813,-0.3339 -2.594,-19.52024 -6.338,-29.50247 -3.559,-9.48932 -10.156,-18.54736 -17.447,-21.82475 -4.333,-1.94675 -16.667,-3.10547 -21.875,0.34583 -5.209,3.44931 -7.435,13.11154 -7.553,18.11408 z"
           id="path20-7"
           style="fill:#ffffff;fill-opacity:1;stroke:#000000;stroke-width:1.9937408;stroke-linecap:round;stroke-linejoin:round;stroke-miterlimit:9.79310322;stroke-dasharray:none"
           inkscape:connector-curvature="0" />
        <path
           stroke-miterlimit="10"
           d="m 244.12144,655.61344 c 0.054,12.50834 -9.321,26.74084 -9.321,26.74084 0,0 -5.496,-6.46833 -8.995,-6.46833 -4.079,0 -31.543,14.66379 -36.23,13.80121 -1.814,-0.3339 3.929,-20.72765 7.672,-30.70888 3.559,-9.48833 10.156,-18.54736 17.448,-21.82475 4.333,-1.94775 16.667,-3.10547 21.875,0.34483 5.207,3.4513 7.53,13.11155 7.551,18.11508 z"
           id="path23"
           style="fill:#ffffff;fill-opacity:1;stroke:#000000;stroke-width:1.9937408;stroke-linecap:round;stroke-linejoin:round;stroke-miterlimit:9.79310322;stroke-dasharray:none"
           inkscape:connector-curvature="0" />
        <path
           d="m 204.59144,645.86574 c -7.7,0.29912 -16.52,6.90557 -23.52,9.38995 1.2,-4.77 6.609,-9.53802 7.808,-14.30703 -3.299,-0.34483 -12.083,3.65999 -14.583,5.34837 -2.2,3.67787 -7.726,14.06157 -9.896,19.84023 -1.476,-3.27838 0.677,-8.23819 -1.823,-5.95157 -2.9,2.48338 -8.594,10.00607 -15.191,12.59479 0.694,-2.67319 4.691,-8.89208 2.691,-8.19546 -1.2,0.89438 -11.5,6.84297 -12.5,7.93609 -1.215,-2.2419 2.426,-5.8989 -0.174,-6.2964 -1.2,0.795 -12.441,5.12974 -13.542,6.12349 -1.6,-1.1925 4.985,-5.79456 3.385,-6.98706 -3.2,0.89338 -10.229,4.46592 -12.76,4.0545 -0.968,-0.15602 4.253,-3.91438 1.302,-3.96705 -5.068,-0.0904 -11.214,0.85661 -12.326,-9.9e-4 3.5,-1.98751 18.209,-6.91154 19.909,-10.49004 1.1,-1.59 -7.231,-2.26575 -7.93,-3.65799 2.1,-1.09313 10.851,-4.13997 13.542,-4.48579 1,-1.49063 0.703,-0.98481 1.302,-2.67418 -3.212,-1.29387 -9.846,-0.57737 -11.545,-0.77612 3.9,-2.08688 15.885,-6.12449 21.528,-6.72869 -3.1,-2.08787 -7.785,-2.36214 -11.285,-2.76064 3.199,-1.49062 8.288,-1.07722 11.788,-0.87847 5.301,0.3965 7.13,-0.22857 12.431,-0.32894 -3.2,-1.29187 -6.509,-2.47046 -9.809,-3.36384 12.966,-2.19917 19.531,6.72868 33.579,5.28178 -4.933,-2.35022 -8.26,-6.8688 -9.36,-10.54468 12.934,4.22642 24.914,1.89806 34.201,2.32935 5.8,0.0994 17.03,3.06572 22.83,3.36384 2.431,-9.57478 8.854,-15.22525 20.92,-15.44089 3.646,-4.39934 12.5,-13.37092 23.525,-4.83063 9.461,-8.28092 14.539,1.42305 18.445,1.42305 15.104,0 20.79,10.0508 22.18,14.70851 3.124,-3.27739 3.906,-6.98706 5.381,-9.1435 1.216,-1.89807 2.258,-3.19193 4.341,-5.00354 0.199,-1.9875 -0.348,-3.96804 0.954,-7.33189 0.868,-2.75964 1.65,-4.83062 1.39,-7.07352 -1.389,-2.32935 -3.906,-4.74416 -3.56,-7.93609 -2.5,-3.975 -4.809,-9.54994 -5.208,-14.31994 -0.601,-8.04839 -0.158,-10.69574 1.042,-18.54637 0.781,3.4503 2.04,5.32054 2.43,4.83062 0.858,-1.07723 0.175,-12.13071 1.129,-14.14703 0.955,2.32935 2.994,4.67857 3.732,3.01901 0.87,-1.9557 0.662,-12.07308 1.042,-14.49186 0.3,0 0.984,11.13 3.386,13.11154 -0.501,-2.48438 0.743,-9.25281 2.344,-11.04156 0.781,1.38032 1.403,4.56728 2.604,5.26191 1.042,-1.46678 3.653,-13.03702 3.553,-15.81853 1.9,3.57751 2.351,11.24628 2.177,15.4737 1.389,1.89806 3.125,4.83062 3.732,9.22995 1.216,-1.81161 3.385,-5.22216 3.385,-8.79867 2.604,10.61028 -1.041,20.53089 0.781,21.7383 0.545,-0.33191 2.952,-2.50127 4.255,-7.67772 1.128,11.55931 -0.608,16.73576 -1.997,19.92669 0.521,0.17291 2.951,-0.77612 3.992,-1.81161 -1.735,6.46932 -5.381,12.07606 -11.544,14.66478 -1.389,6.2964 -4.466,5.22116 -7.466,8.79867 0.259,4.91707 -0.521,12.42188 -2.604,17.08058 0.954,-1.2074 13.977,-11.5593 22.396,-23.20507 -0.26,7.07352 -3.646,14.49187 -7.552,21.99667 -2.604,4.31288 -6.815,9.3989 -9.114,11.3864 -5.469,5.08999 -11.11,9.70397 -17.23,11.51558 -7.683,4.91708 -0.076,15.02849 -6.12,21.47992 -3.516,3.7524 -8.463,5.30563 -13.802,3.49403 0.253,4.91509 2.518,10.78318 8.333,15.26798 -1.562,20.31524 -17.101,28.20861 -24.609,33.38406 1.736,3.27739 1.579,6.89563 1.433,7.5058 -0.8,2.58275 -0.944,1.73509 -0.745,4.41722 1.001,4.57224 4.601,7.85063 8.001,10.83188 -1.7,-0.19875 -3.3,-0.3975 -5,-0.59625 1.4,2.7825 3.2,5.66338 6.5,6.35901 5,1.1925 13.121,4.35064 17.72,6.93539 -4.599,2.48338 -12.713,-0.29614 -17.013,2.58772 2.43,3.10547 6.787,5.72599 9.893,6.47727 4.797,1.29187 9.897,1.59099 14.797,1.39224 2.1,0.10037 7.597,0.84568 10.028,1.70925 7.552,2.50127 11.065,5.64749 16.666,9.91962 -1.4,-0.0994 -5.295,-0.30011 -6.694,-0.39948 2.1,2.78349 14.391,6.94731 16.591,9.62944 -3.56,0.86257 -6.32,2.226 -3.82,4.31288 2.2,1.09412 7.102,2.51717 9.201,3.70967 -1.899,-0.49588 -7.672,0.33489 -9.572,-0.0626 3.583,2.39196 11.136,4.28903 15.649,5.84226 -3.56,1.03549 -11.629,0.4621 -13.629,-0.43228 1.997,2.33034 3.386,3.96904 5.469,5.86611 -5.729,-0.94903 -11.775,-3.86967 -13.976,-5.26191 0.087,1.72515 2.518,4.6587 4.254,7.24643 -2.7,0.0994 -14.746,-5.02738 -16.146,-6.81514 -1.499,0.59724 1.631,5.10489 2.431,6.29839 -3.398,-0.99375 -10.59,-6.03902 -12.761,-7.59226 0.261,2.67419 0.954,5.86611 0.521,6.98707 -4.254,-6.38287 -19.879,-11.21349 -21.268,-22.34151 -2.899,-1.9875 -4.745,-3.90941 -5.545,-7.38754 -0.3,-1.98849 -2.823,-4.77 -4.524,-5.46662 -0.043,6.07281 -1.783,15.44189 -2.083,15.44189 -2.8,-9.54199 -5.632,-14.76415 -11.632,-22.51541 -1.909,-1.72614 -4.004,-6.88073 -5.903,-6.38385 -1.4,0.30011 -3.414,4.7392 -4.514,4.14096 -1.959,-0.16397 1.572,-6.21194 0.348,-8.10901 -1.027,-1.59199 -6.945,0.86258 -9.375,-0.86257 -1.601,-6.16126 -1.455,-11.59608 -0.955,-17.85671 0.5,-2.28562 -2.518,-3.79513 -3.038,-6.98706 -0.701,-3.17901 2.229,-7.25835 1.128,-10.43736 -12.413,-6.12449 -22.179,-14.01785 -23.481,-31.35681 0,0 0.998,-7.37562 5.599,-13.84593 -5.729,-1.8116 -12.109,-6.42658 -13.672,-14.88042 -7.682,11.51558 -19.922,12.81044 -25.781,12.2927 1.432,-6.46833 6.38,-13.84394 8.203,-15.35345 z"
           id="path26-4"
           style="stroke:#000000;stroke-width:0.9968704;stroke-linecap:round;stroke-linejoin:round;stroke-miterlimit:9.79310322;stroke-dasharray:none"
           inkscape:connector-curvature="0" />
        <path
           stroke-miterlimit="10"
           d="m 230.19944,663.03179 c -3.299,4.91708 -4.081,12.76771 -4.081,12.76771"
           id="path29"
           style="fill:none;stroke:#000000;stroke-width:0.9968704;stroke-linecap:round;stroke-linejoin:round;stroke-miterlimit:9.79310322;stroke-dasharray:none"
           inkscape:connector-curvature="0" />
        <path
           stroke-miterlimit="10"
           d="m 226.72644,658.546 c -4.34,6.21094 -5.902,18.11508 -5.902,18.11508"
           id="path32-0"
           style="fill:none;stroke:#000000;stroke-width:0.9968704;stroke-linecap:round;stroke-linejoin:round;stroke-miterlimit:9.79310322;stroke-dasharray:none"
           inkscape:connector-curvature="0" />
        <path
           stroke-miterlimit="10"
           d="m 222.47344,654.66441 c -5.035,8.02255 -7.292,24.49893 -7.292,24.49893"
           id="path35"
           style="fill:none;stroke:#000000;stroke-width:0.9968704;stroke-linecap:round;stroke-linejoin:round;stroke-miterlimit:9.79310322;stroke-dasharray:none"
           inkscape:connector-curvature="0" />
        <path
           stroke-miterlimit="10"
           d="m 216.31044,656.47502 c -8.594,13.97412 -8.247,26.13862 -8.247,26.13862"
           id="path38-9"
           style="fill:none;stroke:#000000;stroke-width:0.9968704;stroke-linecap:round;stroke-linejoin:round;stroke-miterlimit:9.79310322;stroke-dasharray:none"
           inkscape:connector-curvature="0" />
        <path
           stroke-miterlimit="10"
           d="m 207.45544,661.65147 c -8.594,13.62929 -7.552,24.49794 -7.552,24.49794"
           id="path41"
           style="fill:none;stroke:#000000;stroke-width:0.9968704;stroke-linecap:round;stroke-linejoin:round;stroke-miterlimit:9.79310322;stroke-dasharray:none"
           inkscape:connector-curvature="0" />
        <path
           stroke-miterlimit="10"
           d="m 303.20244,664.92985 c 3.559,4.40033 4.167,11.55931 4.167,11.55931"
           id="path44-4"
           style="fill:none;stroke:#000000;stroke-width:0.9968704;stroke-linecap:round;stroke-linejoin:round;stroke-miterlimit:9.79310322;stroke-dasharray:none"
           inkscape:connector-curvature="0" />
        <path
           stroke-miterlimit="10"
           d="m 307.19544,663.2047 c 3.385,3.88159 5.469,13.63028 5.469,13.63028"
           id="path47"
           style="fill:none;stroke:#000000;stroke-width:0.9968704;stroke-linecap:round;stroke-linejoin:round;stroke-miterlimit:9.79310322;stroke-dasharray:none"
           inkscape:connector-curvature="0" />
        <path
           stroke-miterlimit="10"
           d="m 311.27544,659.66695 c 5.208,6.29839 7.031,19.23702 7.031,19.23702"
           id="path50-8"
           style="fill:none;stroke:#000000;stroke-width:0.9968704;stroke-linecap:round;stroke-linejoin:round;stroke-miterlimit:9.79310322;stroke-dasharray:none"
           inkscape:connector-curvature="0" />
        <path
           stroke-miterlimit="10"
           d="m 315.35444,654.75086 c 9.636,13.45638 9.983,27.08667 9.983,27.08667"
           id="path53"
           style="fill:none;stroke:#000000;stroke-width:0.9968704;stroke-linecap:round;stroke-linejoin:round;stroke-miterlimit:9.79310322;stroke-dasharray:none"
           inkscape:connector-curvature="0" />
        <path
           stroke-miterlimit="10"
           d="m 324.90344,657.94279 c 8.594,13.62929 8.507,27.86278 8.507,27.86278"
           id="path56-8"
           style="fill:none;stroke:#000000;stroke-width:0.9968704;stroke-linecap:round;stroke-linejoin:round;stroke-miterlimit:9.79310322;stroke-dasharray:none"
           inkscape:connector-curvature="0" />
        <path
           stroke-miterlimit="10"
           d="m 267.43844,639.56834 c 10.417,0 28.109,4.87534 29.427,24.15311 1.91,27.94924 -21.181,44.51208 -29.341,44.51208 -9.288,0 -31.076,-16.21702 -29.166,-45.2882 1.256,-19.10883 18.83,-23.37699 29.08,-23.37699 z"
           id="path59"
           style="fill:#ffffff;fill-opacity:1;stroke:#000000;stroke-width:1.9937408;stroke-linecap:round;stroke-linejoin:round;stroke-miterlimit:9.79310322;stroke-dasharray:none"
           inkscape:connector-curvature="0" />
        <path
           stroke-miterlimit="10"
           d="m 287.23044,668.81045 c 0,0 -3.126,-1.85434 -6.077,-1.81062 -2.951,0.0427 -6.076,2.06999 -6.076,2.06999 0,0 3.689,2.15644 6.38,2.15743 2.691,9.9e-4 5.773,-2.4168 5.773,-2.4168 z"
           id="path62-2"
           style="stroke:#000000;stroke-width:0.9968704;stroke-linecap:round;stroke-linejoin:round;stroke-miterlimit:9.79310322;stroke-dasharray:none"
           inkscape:connector-curvature="0" />
        <path
           stroke-miterlimit="10"
           d="m 260.32044,668.8979 c 0,0 -3.559,-2.28662 -5.513,-2.58773 -1.953,-0.3011 -6.64,1.55224 -6.64,1.55224 0,0 3.603,2.75965 6.033,3.02001 2.431,0.25937 6.12,-1.98452 6.12,-1.98452 z"
           id="path65"
           style="stroke:#000000;stroke-width:0.9968704;stroke-linecap:round;stroke-linejoin:round;stroke-miterlimit:9.79310322;stroke-dasharray:none"
           inkscape:connector-curvature="0" />
        <path
           stroke-miterlimit="10"
           d="m 288.96644,662.6005 c 0,0 -3.299,-2.88983 -9.028,-2.71691 -5.729,0.17291 -8.55,3.62321 -9.244,5.04626 -0.442,0.9063 -0.26,11.60204 0.087,12.93963 0.347,1.33759 3.732,4.82963 3.298,6.55577 -0.434,1.72615 -2.127,0.94903 -3.342,1.6377 -1.215,0.69165 -2.213,1.55224 -3.038,1.55224 -1.562,0 -1.779,-0.90729 -3.472,-1.42305 -1.53,-0.46806 -3.473,0 -3.993,-1.42404 -0.518,-1.41511 1.605,-3.19193 1.605,-3.19193"
           id="path68-4"
           style="fill:none;stroke:#000000;stroke-width:0.9968704;stroke-linecap:round;stroke-linejoin:round;stroke-miterlimit:9.79310322;stroke-dasharray:none"
           inkscape:connector-curvature="0" />
        <path
           stroke-miterlimit="10"
           d="m 261.62244,662.77242 c 0,0 -2.387,-2.75965 -7.986,-2.88883 -5.599,-0.13018 -9.071,3.40757 -9.461,4.6587 -0.39,1.25113 0.478,2.50127 0.478,2.50127"
           id="path71"
           style="fill:none;stroke:#000000;stroke-width:0.9968704;stroke-linecap:round;stroke-linejoin:round;stroke-miterlimit:9.79310322;stroke-dasharray:none"
           inkscape:connector-curvature="0" />
        <path
           stroke-miterlimit="10"
           d="m 288.35844,672.86594 c 0,0 -3.429,3.36484 -7.205,3.36484 -3.776,0 -8.94,-3.88159 -8.94,-3.88159"
           id="path74-5"
           style="fill:none;stroke:#000000;stroke-width:0.9968704;stroke-linecap:round;stroke-linejoin:round;stroke-miterlimit:9.79310322;stroke-dasharray:none"
           inkscape:connector-curvature="0" />
        <path
           stroke-miterlimit="10"
           d="m 260.79844,673.25351 c 0,0 -4.341,2.84709 -7.118,2.84709 -2.778,0 -4.515,-1.07822 -4.515,-1.07822"
           id="path77"
           style="fill:none;stroke:#000000;stroke-width:0.9968704;stroke-linecap:round;stroke-linejoin:round;stroke-miterlimit:9.79310322;stroke-dasharray:none"
           inkscape:connector-curvature="0" />
        <path
           d="m 267.35144,695.68246 c -0.89,0 -2.361,-0.64196 -2.361,-0.64196 -1.003,-0.1123 -3.933,-0.0487 -5.517,-0.3508 -1.685,-0.32098 -3.736,-1.93384 -3.928,-2.19917 -0.167,-0.23154 0.373,-0.68469 0.606,-0.85164 0.235,-0.16596 0.683,-0.16497 0.728,0.11825 0.163,1.03549 1.908,2.01136 2.789,2.15744 2.344,0.38855 5.625,-0.98382 5.755,-0.88544 l 1.919,0.44024 1.894,-0.49688 c 0.122,-0.0994 3.802,1.07027 6.492,0.85363 0.828,-0.0656 2.474,-0.92717 2.851,-2.09383 0.087,-0.27229 0.51,-0.25639 0.733,-0.0755 0.223,0.17986 0.59,0.69761 0.408,0.92021 -0.207,0.25241 -2.148,1.65956 -3.797,2.04812 -1.486,0.35079 -4.927,0.32396 -6.25,0.49687 10e-4,0 -1.28,0.56048 -2.322,0.56048 z"
           id="path82-5"
           ZZ="0"
           inkscape:connector-curvature="0"
           style="stroke-width:1;stroke-miterlimit:9.79310322;stroke-dasharray:none" />
        <path
           stroke-miterlimit="10"
           d="m 272.56044,698.48583 c 0,0 -3.45,1.48864 -5.078,1.48864 -2.019,0 -5.426,-1.48864 -5.426,-1.48864"
           id="path85"
           style="fill:none;stroke:#000000;stroke-width:1.49530566;stroke-linecap:round;stroke-linejoin:round;stroke-miterlimit:9.79310322;stroke-dasharray:none"
           inkscape:connector-curvature="0" />
        <path
           stroke-miterlimit="10"
           d="m 297.03944,628.91434 c -0.868,0.0427 -2.344,-2.63046 -2.344,-4.6587 0,-2.02725 -0.173,-3.88159 -1.649,-5.34737 -1.13,-1.12195 -3.212,-1.29387 -4.861,-1.22927 -1.649,0.0646 -4.774,0.5396 -4.817,-1.16468 -0.044,-1.70329 3.017,-3.73054 6.163,-3.73054 3.146,0 5.815,1.78975 6.987,3.4503 1.172,1.66056 1.966,4.5961 2.041,6.25467 0.085,1.89707 -0.1,6.35603 -1.52,6.42559 z"
           id="path88-1"
           style="fill:#ffffff;fill-opacity:1;stroke:none;stroke-miterlimit:10"
           inkscape:connector-curvature="0" />
        <path
           stroke-miterlimit="10"
           d="m 245.99744,616.90288 c 0.26,0.88444 -6.242,4.84354 -8.203,6.21094 -3.06,2.13458 -5.815,4.85248 -5.208,8.4757 0.476,2.84014 2.57,4.23934 4.427,4.70044 2.604,0.64693 5.946,-0.25838 5.946,-0.25838 0,0 0.282,1.66056 1.389,2.37308 1.107,0.71153 3.472,1.59497 3.472,1.59497 0,0 -4.362,1.8762 -9.375,1.61783 -5.013,-0.25937 -9.57,-3.36484 -9.961,-7.69958 -0.391,-4.33474 0.261,-7.5694 2.604,-10.54569 1.598,-2.02923 4.752,-4.6587 7.552,-5.75779 2.164,-0.85065 7.097,-1.59596 7.357,-0.71152 z"
           id="path91"
           style="fill:#ffffff;fill-opacity:1;stroke:none;stroke-miterlimit:10"
           inkscape:connector-curvature="0" />
        <ellipse
           transform="matrix(-0.838,0.54228971,-0.5457,-0.83276302,689.55604,622.00658)"
           stroke-miterlimit="10"
           cx="377.539"
           cy="234.147"
           rx="2.4089999"
           ry="1.1390001"
           id="ellipse94"
           style="fill:#ffffff;fill-opacity:1;stroke:none;stroke-miterlimit:10" />
        <path
           stroke-miterlimit="10"
           d="m 259.47444,624.2775 c 0,0 -6.185,-0.0646 -8.333,1.55224 -1.807,1.36044 -2.213,2.58773 -1.823,3.49403 0.391,0.9063 1.758,1.74701 4.492,0.64693 3.11,-1.25014 5.664,-5.6932 5.664,-5.6932 z"
           id="path97"
           style="fill:#ffffff;fill-opacity:1;stroke:none;stroke-miterlimit:10"
           inkscape:connector-curvature="0" />
        <ellipse
           transform="matrix(-0.9441,0.32763958,-0.3297,-0.93819996,701.51164,700.71591)"
           stroke-miterlimit="10"
           cx="391.08099"
           cy="222.461"
           rx="5.013"
           ry="2.4089999"
           id="ellipse100"
           style="fill:#ffffff;fill-opacity:1;stroke:none;stroke-miterlimit:10" />
        <path
           stroke-miterlimit="10"
           d="m 266.37544,615.22046 c 1.822,-2.00638 -0.679,-6.40472 -6.532,-6.40472 -5.469,0 -10.606,8.38427 -11.927,9.82421 -2.182,2.38004 -6.627,6.54683 -11.445,9.44064 -2.909,2.02029 0.086,5.44873 2.755,4.99657 1.099,-0.18682 8.326,-6.62136 10.091,-8.54029 2.083,-2.26476 4.439,-5.60277 5.403,-6.98706 1.172,-1.68242 3.3,-3.68781 4.818,-3.68781 3.321,0 5.357,2.98622 6.837,1.35846 z"
           id="path103"
           style="fill:#ffffff;fill-opacity:1;stroke:none;stroke-miterlimit:10"
           inkscape:connector-curvature="0" />
        <path
           stroke-miterlimit="10"
           d="m 282.58644,613.60263 c 0.718,-1.29287 -0.087,-4.14096 -5.426,-4.14096 -4.688,0 -9.802,8.73507 -10.785,10.3519 -1.628,2.67419 -3.624,6.42659 -8.442,9.70497 4.948,0.25937 8.052,0 8.052,0 0,0 2.994,-2.65232 4.166,-4.91708 1.172,-2.26475 2.148,-5.69319 3.061,-7.05165 0.911,-1.35846 2.233,-2.88585 3.58,-3.23466 1.497,-0.38855 4.752,1.16368 5.794,-0.71252 z"
           id="path106-7"
           style="fill:#ffffff;fill-opacity:1;stroke:none;stroke-miterlimit:10"
           inkscape:connector-curvature="0" />
        <path
           stroke-miterlimit="10"
           d="m 277.42144,616.49246 c 0.607,-0.77612 3.516,0.51774 4.036,1.03549 0.521,0.51774 2.561,5.34836 4.904,6.94433 2.344,1.59596 4.819,2.15644 5.687,2.54499 0.868,0.38856 2.561,3.06274 2.387,4.57225 -0.174,1.50951 -5.469,4.91708 -5.469,4.91708 0,0 0.869,-4.65871 -1.996,-6.51304 -2.277,-1.47374 -6.511,-0.99177 -8.03,-1.25114 -1.519,-0.25837 -6.554,-2.02725 -6.51,-3.4503 0.043,-1.42404 2.127,-4.74416 2.127,-4.74416 0,0 3.992,3.88159 4.947,2.88982 0.956,-0.99275 -2.691,-6.16821 -2.083,-6.94532 z"
           id="path109"
           style="fill:#ffffff;fill-opacity:1;stroke:none;stroke-miterlimit:10"
           inkscape:connector-curvature="0" />
        <path
           stroke-miterlimit="10"
           d="m 286.61244,633.67341 c -0.036,-0.9371 -6.027,-2.89777 -8.943,-2.94647 -2.915,-0.0487 -7.178,0.82482 -7.581,2.6563 -0.341,1.54528 3.5,4.58815 4.715,4.58815 1.214,0 1.991,-2.46351 3.838,-2.99517 1.846,-0.53166 8.068,1.3048 7.971,-1.30281 z"
           id="path112-1"
           style="fill:#ffffff;fill-opacity:1;stroke:none;stroke-miterlimit:10"
           inkscape:connector-curvature="0" />
        <path
           stroke-miterlimit="10"
           d="m 287.14344,648.53992 c -3.622,0.49588 -10.63,-0.79599 -13.541,-2.97628 -1.74,-1.30281 -9.433,-8.50849 -13.281,-9.18722 -4.492,-0.79202 -10.417,5.43482 -14.695,0.79599 -1.845,-2.00042 3.755,-4.16382 6.103,-4.79385 2.347,-0.62905 9.114,-1.69435 11.978,-0.91922 2.864,0.77512 9.007,6.14933 11.589,8.32763 2.579,2.17929 10.024,7.28618 11.847,8.75295 z"
           id="path115"
           style="fill:#ffffff;fill-opacity:1;stroke:#000000;stroke-width:1.9937408;stroke-linecap:round;stroke-linejoin:round;stroke-miterlimit:9.79310322;stroke-dasharray:none"
           inkscape:connector-curvature="0" />
        <path
           stroke-miterlimit="10"
           d="m 301.59644,619.36142 c 2.084,-0.45315 3.061,5.75779 3.19,8.73407 0.129,2.97628 -0.911,9.31641 -1.953,9.31641 -1.042,0 -1.692,-1.8116 -1.692,-1.8116 0,0 1.106,-4.07637 -0.912,-5.88798 0.391,-1.55223 0.977,-2.97628 0.781,-4.98167 -0.196,-2.00539 -0.815,-5.06514 0.586,-5.36923 z"
           id="path118-1"
           style="fill:#ffffff;fill-opacity:1;stroke:none;stroke-miterlimit:10"
           inkscape:connector-curvature="0" />
        <path
           stroke-miterlimit="10"
           d="m 299.44444,630.73887 c 3.386,1.30976 -3.727,9.7944 -5.269,10.69872 -3.023,1.77384 -11.971,2.29854 -13.979,1.28989 -2.341,-1.17561 -5.64,-4.10817 -5.64,-4.10817 0,0 11.246,1.80863 15.538,0.0855 4.958,-1.9875 7.264,-8.77283 9.35,-7.9659 z"
           id="path121"
           style="fill:#ffffff;fill-opacity:1;stroke:#000000;stroke-width:0.9968704;stroke-linecap:round;stroke-linejoin:round;stroke-miterlimit:9.79310322;stroke-dasharray:none"
           inkscape:connector-curvature="0" />
        <ellipse
           transform="matrix(0.8633,-0.50144656,0.5046,0.85790491,-196.39806,649.71126)"
           stroke-miterlimit="10"
           cx="433.52899"
           cy="244.77"
           rx="1.931"
           ry="3.971"
           id="ellipse124"
           style="fill:#ffffff;fill-opacity:1;stroke:none;stroke-miterlimit:10" />
        <ellipse
           transform="matrix(0.8505,-0.52271283,0.526,0.8451849,-197.62416,659.53428)"
           stroke-miterlimit="10"
           cx="428.32199"
           cy="246.26801"
           rx="1.541"
           ry="2.082"
           id="ellipse127"
           style="fill:#ffffff;fill-opacity:1;stroke:none;stroke-miterlimit:10" />
        <path
           stroke-miterlimit="10"
           d="m 307.28244,627.87985 c -0.044,5.30563 -1.997,9.70497 -1.866,11.12802 0.13,1.42305 1.562,2.544 3.038,3.40657 1.477,0.86357 3.386,1.55224 3.906,1.07822 0.521,-0.47402 0.608,-2.02725 0.131,-2.88982 -0.479,-0.86258 -2.258,-1.07822 -2.692,-2.45854 -0.434,-1.37933 0.044,-2.97629 -0.26,-4.91708 -0.305,-1.9398 -1.605,-4.52753 -2.257,-5.34737 z"
           id="path130-5"
           style="fill:#ffffff;fill-opacity:1;stroke:none;stroke-miterlimit:10"
           inkscape:connector-curvature="0" />
        <path
           stroke-miterlimit="10"
           d="m 281.50144,643.7093 c 2.275,0.10335 8.371,-0.88941 9.636,-0.17192 1.266,0.7165 5.497,6.88769 5.902,8.62576 0.403,1.73906 0.057,4.39933 -1.057,5.6773 -4.412,-4.12506 -10.488,-11.45696 -14.481,-14.13114 z"
           id="path133"
           style="fill:#ffffff;fill-opacity:1;stroke:#000000;stroke-width:1.9937408;stroke-linecap:round;stroke-linejoin:round;stroke-miterlimit:9.79310322;stroke-dasharray:none"
           inkscape:connector-curvature="0" />
        <path
           stroke-miterlimit="10"
           d="m 298.47144,647.20233 c -1.995,0.51775 1.042,5.95257 0.912,7.24643 -0.131,1.29387 -2.04,2.88884 -1.996,3.53676 0.044,0.64793 3.992,3.32112 6.423,3.32112 1.998,0 5.989,-3.06175 6.641,-4.52852 0.652,-1.46678 1.302,-4.95981 0.825,-7.50481 -0.478,-2.54499 -4.602,-5.21818 -4.602,-5.21818 0,0 -1.084,2.06998 -1.128,3.66594 -0.044,1.59497 1.259,3.53676 1.433,4.83062 0.174,1.29387 -0.738,3.53776 -1.216,4.09724 -0.478,0.56047 -3.081,1.12194 -3.862,0.51774 -0.781,-0.6042 1.648,-3.32111 1.648,-5.34836 0,-1.81161 -3.082,-5.13372 -5.078,-4.61598 z"
           id="path136-2"
           style="fill:#ffffff;fill-opacity:1;stroke:none;stroke-miterlimit:10"
           inkscape:connector-curvature="0" />
        <path
           stroke-miterlimit="10"
           d="m 261.62244,637.15253 c 2.212,0 6.25,4.14096 6.25,4.14096 0,0 -6.666,3.71266 -9.859,4.50666 -3.195,0.79401 -8.497,1.11002 -11.55,2.04415 -3.053,0.93412 -5.785,8.31968 -8.557,8.17956 -2.772,-0.14012 -1.926,-4.80777 -1.926,-4.80777 0,0 0.799,-5.18241 4.321,-7.23649 3.523,-2.05408 9.208,-2.10079 12.824,-2.84709 3.618,-0.7483 5.256,-3.97998 8.497,-3.97998 z"
           id="path139"
           style="fill:#ffffff;fill-opacity:1;stroke:#000000;stroke-width:1.9937408;stroke-linecap:round;stroke-linejoin:round;stroke-miterlimit:9.79310322;stroke-dasharray:none"
           inkscape:connector-curvature="0" />
        <path
           stroke-miterlimit="10"
           d="m 235.14644,644.48542 c 0,0 -0.737,3.40757 -1.605,3.92532 -0.869,0.51774 -5.339,-4.48579 -5.208,-6.81515 0.13,-2.33531 6.813,2.88983 6.813,2.88983 z"
           id="path142-7"
           style="fill:#ffffff;fill-opacity:1;stroke:none;stroke-miterlimit:10"
           inkscape:connector-curvature="0" />
        <ellipse
           transform="matrix(0.7859,-0.61443601,0.6183,0.78098861,-211.15446,676.80199)"
           stroke-miterlimit="10"
           cx="364.13199"
           cy="253.877"
           rx="1.012"
           ry="2.684"
           id="ellipse145"
           style="fill:#ffffff;fill-opacity:1;stroke:none;stroke-miterlimit:10" />
        <path
           stroke-miterlimit="10"
           d="m 227.17144,644.30356 c -1.897,-1.30578 -2.918,1.73609 -2.918,4.35064 0,3.14224 1.605,6.62236 4.329,9.57082 2.724,2.94845 9.343,4.63386 9.343,4.63386 l 0.911,-5.52128 c 0,0 -6.162,0.16695 -9.038,-3.36683 -2.676,-3.28633 -0.73,-8.36241 -2.627,-9.66721 z"
           id="path148-6"
           style="fill:#ffffff;fill-opacity:1;stroke:#000000;stroke-width:0.9968704;stroke-linecap:round;stroke-linejoin:round;stroke-miterlimit:9.79310322;stroke-dasharray:none"
           inkscape:connector-curvature="0" />
        <path
           stroke-miterlimit="10"
           d="m 227.24744,638.7485 c -3.646,2.54499 -5.078,7.46207 -5.078,7.46207 0,0 -1.78,-6.81415 -1.736,-9.4456 0.043,-2.63145 1.649,-5.90884 3.646,-5.73593 1.996,0.17192 1.302,5.089 3.168,7.71946 z"
           id="path151"
           style="fill:#ffffff;fill-opacity:1;stroke:none;stroke-miterlimit:10"
           inkscape:connector-curvature="0" />
        <path
           stroke-miterlimit="10"
           d="m 215.44244,640.17254 c 2.344,0 3.385,7.67673 3.298,8.88513 -0.087,1.2084 -3.125,4.82963 -6.597,6.98706 -3.473,2.15644 -8.637,3.53775 -10.156,2.32935 -1.52,-1.2084 2.167,-8.13286 4.297,-10.91238 2.213,-2.88982 6.814,-7.28916 9.158,-7.28916 z"
           id="path154-1"
           style="fill:#ffffff;fill-opacity:1;stroke:none;stroke-miterlimit:10"
           inkscape:connector-curvature="0" />
        <path
           stroke-miterlimit="10"
           d="m 296.45344,677.20068 c 0.3,1.02854 1.643,1.15673 3.301,0.67874 1.658,-0.478 2.208,-1.91397 1.907,-2.9425 -0.3,-1.02952 -1.338,-1.26306 -2.996,-0.78606 -1.658,0.478 -2.514,2.02129 -2.212,3.04982 z"
           id="path157"
           style="fill:#ffffff;fill-opacity:1;stroke:none;stroke-miterlimit:10"
           inkscape:connector-curvature="0" />
        <path
           stroke-miterlimit="10"
           d="m 302.89844,679.33526 c 0,0 -3.972,1.48765 -6.901,1.38032 0,0.81984 -1.823,4.22742 -1.823,4.22742 0,0 6.315,0.25936 7.812,-1.07822 1.498,-1.33759 0.912,-4.52952 0.912,-4.52952 z"
           id="path160-4"
           style="fill:#ffffff;fill-opacity:1;stroke:none;stroke-miterlimit:10"
           inkscape:connector-curvature="0" />
        <path
           stroke-miterlimit="10"
           d="m 303.02844,686.19413 c 0,0 -6.38,1.16467 -9.636,0.73239 -0.195,0.94903 -1.302,2.2429 -1.302,2.2429 0,0 4.731,3.62321 7.031,2.71691 2.301,-0.90531 3.907,-5.6922 3.907,-5.6922 z"
           id="path163"
           style="fill:#ffffff;fill-opacity:1;stroke:none;stroke-miterlimit:10"
           inkscape:connector-curvature="0" />
        <path
           stroke-miterlimit="10"
           d="m 298.34144,693.95731 c 0,0 -5.403,-1.03549 -7.747,-2.45954 -0.456,1.16468 -1.823,2.58773 -1.823,2.58773 0,0 2.474,3.17007 4.883,3.10547 2.409,-0.0646 4.687,-3.23366 4.687,-3.23366 z"
           id="path166-2"
           style="fill:#ffffff;fill-opacity:1;stroke:none;stroke-miterlimit:10"
           inkscape:connector-curvature="0" />
        <path
           stroke-miterlimit="10"
           d="m 294.17444,699.00357 c 0,0 -5.664,-1.29485 -7.096,-2.39394 -0.456,0.9053 -2.865,3.17006 -2.865,3.17006 0,0 2.084,2.52314 4.232,2.32935 2.148,-0.19378 5.729,-3.10547 5.729,-3.10547 z"
           id="path169"
           style="fill:#ffffff;fill-opacity:1;stroke:none;stroke-miterlimit:10"
           inkscape:connector-curvature="0" />
        <path
           stroke-miterlimit="10"
           d="m 282.06444,701.97886 5.859,2.20017 c 0,0 -3.189,2.7825 -5.989,2.91169 -2.8,0.12918 -3.841,-1.61783 -3.841,-1.61783 l 3.971,-3.49403 z"
           id="path172-3"
           style="fill:#ffffff;fill-opacity:1;stroke:none;stroke-miterlimit:10"
           inkscape:connector-curvature="0" />
        <path
           stroke-miterlimit="10"
           d="m 238.05444,673.64206 c 0.13,1.55224 -0.719,1.28592 -2.377,0.80792 -1.658,-0.47799 -2.758,-1.7003 -2.457,-2.72983 0.3,-1.02853 1.483,-1.27299 3.142,-0.79599 1.657,0.47898 1.603,1.65062 1.692,2.7179 z"
           id="path175"
           style="fill:#ffffff;fill-opacity:1;stroke:none;stroke-miterlimit:10"
           inkscape:connector-curvature="0" />
        <path
           stroke-miterlimit="10"
           d="m 232.06544,674.67755 c 0,0 3.27,3.32509 7.319,3.98295 -0.154,0.80594 1.405,4.9459 1.405,4.9459 0,0 -5.745,-1.3356 -7.552,-3.04088 -1.807,-1.70527 -1.172,-5.88797 -1.172,-5.88797 z"
           id="path178-2"
           style="fill:#ffffff;fill-opacity:1;stroke:none;stroke-miterlimit:10"
           inkscape:connector-curvature="0" />
        <path
           stroke-miterlimit="10"
           d="m 233.23744,683.99396 c 0,0 4.968,1.80565 8.919,2.84611 0.261,1.29485 1.367,3.7524 1.367,3.7524 0,0 -5.664,0.58234 -7.422,-0.51775 -2.55,-1.59497 -2.864,-6.08076 -2.864,-6.08076 z"
           id="path181"
           style="fill:#ffffff;fill-opacity:1;stroke:none;stroke-miterlimit:10"
           inkscape:connector-curvature="0" />
        <path
           stroke-miterlimit="10"
           d="m 237.14344,692.79263 c 0,0 5.507,0.6678 8.594,0.77612 0.13,1.09909 2.083,3.04088 2.083,3.04088 0,0 -4.098,2.53903 -6.51,1.09909 -2.413,-1.43895 -4.167,-4.91609 -4.167,-4.91609 z"
           id="path184-2"
           style="fill:#ffffff;fill-opacity:1;stroke:none;stroke-miterlimit:10"
           inkscape:connector-curvature="0" />
        <path
           stroke-miterlimit="10"
           d="m 243.65344,700.42662 c 0,0 4.492,-0.97089 5.924,-2.06998 0.456,0.90531 2.344,2.71692 2.344,2.71692 0,0 -1.953,2.39394 -4.102,2.20016 -2.149,-0.19378 -4.166,-2.8471 -4.166,-2.8471 z"
           id="path187"
           style="fill:#ffffff;fill-opacity:1;stroke:none;stroke-miterlimit:10"
           inkscape:connector-curvature="0" />
        <path
           stroke-miterlimit="10"
           d="m 254.07044,703.4675 -3.634,1.55224 c 0,0 1.028,2.04216 3.829,2.13458 1.953,0.0636 2.799,-1.42405 2.799,-1.42405 l -2.994,-2.26277 z"
           id="path190"
           style="fill:#ffffff;fill-opacity:1;stroke:none;stroke-miterlimit:10"
           inkscape:connector-curvature="0" />
        <path
           stroke-miterlimit="10"
           d="m 276.07544,707.15531 c -2.214,1.81061 -5.859,2.65232 -5.859,2.65232 0,0 7.489,12.03134 9.636,9.89875 3.254,-3.23466 -1.303,-10.73946 -3.777,-12.55107 z"
           id="path193"
           style="fill:#ffffff;fill-opacity:1;stroke:none;stroke-miterlimit:10"
           inkscape:connector-curvature="0" />
        <path
           stroke-miterlimit="10"
           d="m 265.20344,710.45556 c 0,0 -1.889,1.68142 -3.386,2.45853 3.125,1.42405 7.683,9.4456 9.114,5.82239 1.433,-3.62322 -5.728,-8.28092 -5.728,-8.28092 z"
           id="path196"
           style="fill:#ffffff;fill-opacity:1;stroke:none;stroke-miterlimit:10"
           inkscape:connector-curvature="0" />
        <path
           stroke-miterlimit="10"
           d="m 273.21144,719.90116 c 0,0 -1.209,2.55294 -0.977,4.01077 0.586,3.68781 9.114,8.02255 9.18,4.78789 0.064,-3.23565 -8.203,-8.79866 -8.203,-8.79866 z"
           id="path199"
           style="fill:#ffffff;fill-opacity:1;stroke:none;stroke-miterlimit:10"
           inkscape:connector-curvature="0" />
        <path
           stroke-miterlimit="10"
           d="m 259.08344,707.2845 2.93,1.8116 c 0,0 -2.019,3.36385 -4.297,2.32936 -2.279,-1.03549 1.367,-4.14096 1.367,-4.14096 z"
           id="path202"
           style="fill:#ffffff;fill-opacity:1;stroke:none;stroke-miterlimit:10"
           inkscape:connector-curvature="0" />
        <ellipse
           stroke-miterlimit="10"
           cx="391.11301"
           cy="321.32101"
           rx="2.8970001"
           ry="3.9389999"
           id="ellipse205"
           style="fill:#ffffff;fill-opacity:1;stroke:none;stroke-miterlimit:10"
           transform="matrix(1,0,0,0.99375062,-132.12756,399.06678)" />
        <path
           stroke-miterlimit="10"
           d="m 265.00844,719.64179 c -0.781,1.22927 -1.953,3.04187 -1.953,3.04187 0,0 1.758,2.8461 2.278,5.49842 1.433,0.13018 3.19,-1.29386 3.19,-3.88159 0,-1.81161 -2.343,-4.52852 -3.515,-4.6587 z"
           id="path208"
           style="fill:#ffffff;fill-opacity:1;stroke:none;stroke-miterlimit:10"
           inkscape:connector-curvature="0" />
        <path
           stroke-miterlimit="10"
           d="m 271.06244,727.72893 -1.237,1.48764 c 0,0 2.995,6.27554 4.883,8.47471 1.302,-6.59851 -3.646,-9.96235 -3.646,-9.96235 z"
           id="path211"
           style="fill:#ffffff;fill-opacity:1;stroke:none;stroke-miterlimit:10"
           inkscape:connector-curvature="0" />
        <path
           stroke-miterlimit="10"
           d="m 277.63844,732.58141 c -0.456,0.77612 -0.325,4.13997 0.456,5.88698 0.781,1.74702 4.112,5.27781 6.836,6.14734 5.469,1.74702 17.708,0.9709 17.708,0.9709 0,0 -10.026,-4.27015 -14.714,-6.72869 -3.768,-1.97557 -6.25,-6.6631 -6.25,-6.6631 0,0 -3.58,-0.38955 -4.036,0.38657 z"
           id="path214"
           style="fill:#ffffff;fill-opacity:1;stroke:none;stroke-miterlimit:10"
           inkscape:connector-curvature="0" />
        <path
           stroke-miterlimit="10"
           d="m 260.38544,724.42968 c -1.562,0 -2.669,1.68142 -2.669,3.75141 0,1.55223 1.433,4.78789 3.255,4.91707 1.823,0.12919 2.019,-4.14096 2.019,-4.14096 0,0 -1.043,-4.52752 -2.605,-4.52752 z"
           id="path217"
           style="fill:#ffffff;fill-opacity:1;stroke:none;stroke-miterlimit:10"
           inkscape:connector-curvature="0" />
        <path
           stroke-miterlimit="10"
           d="m 267.15644,730.31666 c 0,0 -1.722,2.23097 -1.367,4.14095 0.911,4.91708 5.823,12.75479 8.203,14.94502 2.669,2.45854 5.338,6.65614 6.25,8.08714 2.474,3.88159 7.161,13.71674 7.161,13.71674 0,0 0.521,-7.24643 -1.302,-12.68125 -0.634,-1.89011 -3.842,-6.14635 -5.209,-8.02255 -1.367,-1.8762 -4.492,-4.27014 -6.575,-7.11625 -2.083,-2.8461 -7.161,-13.0698 -7.161,-13.0698 z"
           id="path220"
           style="fill:#ffffff;fill-opacity:1;stroke:none;stroke-miterlimit:10"
           inkscape:connector-curvature="0" />
        <path
           stroke-miterlimit="10"
           d="m 263.18444,735.23373 c 0.391,2.97629 2.734,6.47031 2.734,6.47031 0,0 -4.569,0.0606 -5.859,-2.00638 -1.172,-1.8762 -0.521,-4.07636 -0.521,-4.07636 0,0 1.954,-0.19279 3.646,-0.38757 z"
           id="path223"
           style="fill:#ffffff;fill-opacity:1;stroke:none;stroke-miterlimit:10"
           inkscape:connector-curvature="0" />
        <path
           stroke-miterlimit="10"
           d="m 283.49744,748.36714 c -1.692,1.22927 11.676,13.00522 16.494,24.3926 0.846,-0.32396 4.144,-4.07735 5.056,-8.79966 2.148,1.03549 4.883,1.55224 8.072,1.74702 3.19,0.19378 7.748,-0.19379 7.748,-0.19379 0,0 -1.758,-5.564 -5.469,-6.59949 -3.711,-1.03549 -7.553,0.51774 -10.808,-0.12919 -3.254,-0.64793 -20.042,-11.18069 -21.093,-10.41749 z"
           id="path226"
           style="fill:#ffffff;fill-opacity:1;stroke:none;stroke-miterlimit:10"
           inkscape:connector-curvature="0" />
        <path
           stroke-miterlimit="10"
           d="m 321.06244,760.65984 3.32,4.91707 5.403,0.12919 c 0,0 -1.106,-3.04087 -3.711,-4.39933 -1.264,-0.65985 -5.012,-0.64693 -5.012,-0.64693"
           id="path229"
           style="fill:#ffffff;fill-opacity:1;stroke:none;stroke-miterlimit:10"
           inkscape:connector-curvature="0" />
        <polygon
           stroke-miterlimit="10"
           points="459.896,374.739 455.599,371.289 449.023,371.289 452.669,374.675 "
           id="polygon232"
           style="fill:#ffffff;fill-opacity:1;stroke:none;stroke-miterlimit:10"
           transform="matrix(1,0,0,0.99375062,-132.12756,399.06678)" />
        <polygon
           stroke-miterlimit="10"
           points="460.938,371.159 465.3,375.391 471.028,375.651 465.82,371.094 "
           id="polygon235"
           style="fill:#ffffff;fill-opacity:1;stroke:none;stroke-miterlimit:10"
           transform="matrix(1,0,0,0.99375062,-132.12756,399.06678)" />
        <polygon
           stroke-miterlimit="10"
           points="448.698,374.805 444.661,371.289 438.997,371.094 444.466,376.433 448.828,376.823 "
           id="polygon238"
           style="fill:#ffffff;fill-opacity:1;stroke:none;stroke-miterlimit:10"
           transform="matrix(1,0,0,0.99375062,-132.12756,399.06678)" />
        <polygon
           stroke-miterlimit="10"
           points="442.253,378.255 437.109,374.284 434.7,377.604 438.606,381.966 442.903,382.356 "
           id="polygon241"
           style="fill:#ffffff;fill-opacity:1;stroke:none;stroke-miterlimit:10"
           transform="matrix(1,0,0,0.99375062,-132.12756,399.06678)" />
        <polygon
           stroke-miterlimit="10"
           points="445.833,379.102 445.703,382.617 449.284,385.677 451.888,385.547 451.823,382.422 448.958,379.102 "
           id="polygon244"
           style="fill:#ffffff;fill-opacity:1;stroke:none;stroke-miterlimit:10"
           transform="matrix(1,0,0,0.99375062,-132.12756,399.06678)" />
        <polygon
           stroke-miterlimit="10"
           points="441.016,384.831 441.146,387.435 446.55,391.992 448.894,391.927 448.894,389.258 444.466,384.636 "
           id="polygon247"
           style="fill:#ffffff;fill-opacity:1;stroke:none;stroke-miterlimit:10"
           transform="matrix(1,0,0,0.99375062,-132.12756,399.06678)" />
        <polygon
           stroke-miterlimit="10"
           points="452.278,377.148 452.344,379.036 455.729,381.966 459.44,382.031 459.31,379.817 455.925,377.214 "
           id="polygon250"
           style="fill:#ffffff;fill-opacity:1;stroke:none;stroke-miterlimit:10"
           transform="matrix(1,0,0,0.99375062,-132.12756,399.06678)" />
        <polygon
           stroke-miterlimit="10"
           points="467.253,377.474 461.263,377.604 467.708,381.836 470.703,381.836 470.703,379.753 "
           id="polygon253"
           style="fill:#ffffff;fill-opacity:1;stroke:none;stroke-miterlimit:10"
           transform="matrix(1,0,0,0.99375062,-132.12756,399.06678)" />
        <polygon
           stroke-miterlimit="10"
           points="461.653,381.511 461.914,384.245 464.844,387.695 468.489,387.891 468.555,385.481 464.258,381.575 "
           id="polygon256"
           style="fill:#ffffff;fill-opacity:1;stroke:none;stroke-miterlimit:10"
           transform="matrix(1,0,0,0.99375062,-132.12756,399.06678)" />
        <polygon
           stroke-miterlimit="10"
           points="459.896,385.352 463.802,389.453 463.672,392.708 460.286,392.317 456.511,387.956 456.445,385.156 "
           id="polygon259"
           style="fill:#ffffff;fill-opacity:1;stroke:none;stroke-miterlimit:10"
           transform="matrix(1,0,0,0.99375062,-132.12756,399.06678)" />
        <polygon
           stroke-miterlimit="10"
           points="453.255,388.737 451.042,388.672 454.102,392.903 457.422,393.099 453.841,386.653 "
           id="polygon262"
           style="fill:#ffffff;fill-opacity:1;stroke:none;stroke-miterlimit:10"
           transform="matrix(1,0,0,0.99375062,-132.12756,399.06678)" />
        <polygon
           stroke-miterlimit="10"
           points="472.917,380.534 472.852,383.724 476.367,385.872 479.297,386.458 479.231,383.854 475.456,380.469 "
           id="polygon265"
           style="fill:#ffffff;fill-opacity:1;stroke:none;stroke-miterlimit:10"
           transform="matrix(1,0,0,0.99375062,-132.12756,399.06678)" />
        <polygon
           stroke-miterlimit="10"
           points="465.82,390.104 465.82,392.903 469.856,395.703 472.786,395.769 472.461,393.294 468.425,390.039 "
           id="polygon268"
           style="fill:#ffffff;fill-opacity:1;stroke:none;stroke-miterlimit:10"
           transform="matrix(1,0,0,0.99375062,-132.12756,399.06678)" />
        <polygon
           stroke-miterlimit="10"
           points="470.898,386.133 470.964,389.192 476.237,393.034 480.013,393.359 479.362,390.95 473.633,386.198 "
           id="polygon271"
           style="fill:#ffffff;fill-opacity:1;stroke:none;stroke-miterlimit:10"
           transform="matrix(1,0,0,0.99375062,-132.12756,399.06678)" />
        <path
           stroke-miterlimit="10"
           d="m 347.03944,600.57854 c -14.323,16.90767 -33.767,32.0892 -33.767,32.0892 0,0 2.836,2.58474 6.856,1.55323 5.382,-1.38032 16.902,-15.04638 19.618,-18.71928 3.126,-4.22742 5.904,-9.57578 7.293,-14.92315 z"
           id="path274"
           style="fill:#ffffff;fill-opacity:1;stroke:none;stroke-miterlimit:10"
           inkscape:connector-curvature="0" />
        <path
           stroke-miterlimit="10"
           d="m 320.04344,614.98295 c 0.607,1.72515 1.042,5.95157 0.347,7.67772 -0.694,1.72515 -8.507,7.41934 -8.507,7.41934 l -0.607,-3.53775 c -10e-4,0 5.554,-5.52029 8.767,-11.55931 z"
           id="path277"
           style="fill:#ffffff;fill-opacity:1;stroke:none;stroke-miterlimit:10"
           inkscape:connector-curvature="0" />
        <path
           stroke-miterlimit="10"
           d="m 336.10144,590.39856 c -3.43,0.45315 -11.154,0.58233 -14.41,0 -0.478,2.4804 3.112,5.35234 2.951,7.24643 -0.304,3.57948 -2.56,7.00892 -2.776,9.83415 -0.218,2.82523 1.909,11.73222 1.909,11.73222 0,0 3.429,-5.0254 4.514,-8.79867 1.084,-3.77426 0.565,-9.25182 1.129,-11.47285 0.563,-2.22302 7.053,-4.01276 6.683,-8.54128 z"
           id="path280"
           style="fill:#ffffff;fill-opacity:1;stroke:none;stroke-miterlimit:10"
           inkscape:connector-curvature="0" />
        <path
           stroke-miterlimit="10"
           d="m 343.19744,576.07861 -5.533,5.11086 0,6.72868 c 0,0 4.036,-2.7815 5.143,-5.24004 0.726,-1.61286 0.39,-6.5995 0.39,-6.5995 z"
           id="path283"
           style="fill:#ffffff;fill-opacity:1;stroke:none;stroke-miterlimit:10"
           inkscape:connector-curvature="0" />
        <path
           stroke-miterlimit="10"
           d="m 335.18944,580.15497 c 0,0 0.391,5.95257 -0.586,7.11725 -0.977,1.16467 -2.344,0.58233 -2.344,0.58233 l -0.13,-5.56401 3.06,-2.13557 z"
           id="path286"
           style="fill:#ffffff;fill-opacity:1;stroke:none;stroke-miterlimit:10"
           inkscape:connector-curvature="0" />
        <path
           stroke-miterlimit="10"
           d="m 329.33044,587.40041 -0.064,-8.79867 c 0,0 -2.67,0.77612 -2.67,2.39395 0,1.61782 2.734,6.40472 2.734,6.40472 z"
           id="path289"
           style="fill:#ffffff;fill-opacity:1;stroke:none;stroke-miterlimit:10"
           inkscape:connector-curvature="0" />
        <path
           stroke-miterlimit="10"
           d="m 325.55544,587.40041 -3.19,-8.66948 -3.646,3.62321 c 0,0 0.13,4.46393 1.692,5.24005 1.562,0.77612 5.144,-0.19378 5.144,-0.19378 z"
           id="path292"
           style="fill:#ffffff;fill-opacity:1;stroke:none;stroke-miterlimit:10"
           inkscape:connector-curvature="0" />
        <polygon
           stroke-miterlimit="10"
           points="475.521,174.479 471.81,177.148 470.442,169.336 474.219,166.016 "
           id="polygon295"
           style="fill:#ffffff;fill-opacity:1;stroke:none;stroke-miterlimit:10"
           transform="matrix(1,0,0,0.99375062,-132.12756,399.06678)" />
        <polygon
           stroke-miterlimit="10"
           points="467.969,171.615 469.661,178.581 468.294,180.143 466.341,174.479 "
           id="polygon298"
           style="fill:#ffffff;fill-opacity:1;stroke:none;stroke-miterlimit:10"
           transform="matrix(1,0,0,0.99375062,-132.12756,399.06678)" />
        <path
           stroke-miterlimit="10"
           d="m 331.08844,567.79769 1.237,10.99883 c 0,0 -2.539,-2.71692 -2.8,-4.59411 -0.259,-1.8762 1.563,-6.40472 1.563,-6.40472 z"
           id="path301"
           style="fill:#ffffff;fill-opacity:1;stroke:none;stroke-miterlimit:10"
           inkscape:connector-curvature="0" />
        <polygon
           stroke-miterlimit="10"
           points="457.292,168.229 459.896,174.87 456.836,179.102 455.273,173.112 "
           id="polygon304"
           style="fill:#ffffff;fill-opacity:1;stroke:none;stroke-miterlimit:10"
           transform="matrix(1,0,0,0.99375062,-132.12756,399.06678)" />
        <polygon
           stroke-miterlimit="10"
           points="450.13,169.987 453.32,172.787 453.32,178.255 450.261,180.924 448.372,177.799 448.438,172.787 "
           id="polygon307"
           style="fill:#ffffff;fill-opacity:1;stroke:none;stroke-miterlimit:10"
           transform="matrix(1,0,0,0.99375062,-132.12756,399.06678)" />
        <polygon
           stroke-miterlimit="10"
           points="455.599,166.146 453.516,168.945 450.391,166.732 450.195,162.109 452.148,158.659 454.492,160.417 "
           id="polygon310"
           style="fill:#ffffff;fill-opacity:1;stroke:none;stroke-miterlimit:10"
           transform="matrix(1,0,0,0.99375062,-132.12756,399.06678)" />
        <polygon
           stroke-miterlimit="10"
           points="460.547,159.961 458.854,155.469 456.966,159.505 458.008,165.755 460.677,167.708 "
           id="polygon313"
           style="fill:#ffffff;fill-opacity:1;stroke:none;stroke-miterlimit:10"
           transform="matrix(1,0,0,0.99375062,-132.12756,399.06678)" />
        <polygon
           stroke-miterlimit="10"
           points="466.536,162.174 464.192,157.748 462.761,160.156 462.695,166.016 466.341,168.88 "
           id="polygon316"
           style="fill:#ffffff;fill-opacity:1;stroke:none;stroke-miterlimit:10"
           transform="matrix(1,0,0,0.99375062,-132.12756,399.06678)" />
        <polygon
           stroke-miterlimit="10"
           points="471.745,160.417 470.638,157.162 468.489,161.198 468.685,167.708 471.159,165.69 "
           id="polygon319"
           style="fill:#ffffff;fill-opacity:1;stroke:none;stroke-miterlimit:10"
           transform="matrix(1,0,0,0.99375062,-132.12756,399.06678)" />
        <polygon
           stroke-miterlimit="10"
           points="467.317,157.292 469.401,153.451 467.058,146.875 464.778,144.987 462.956,149.87 463.151,155.013 "
           id="polygon322"
           style="fill:#ffffff;fill-opacity:1;stroke:none;stroke-miterlimit:10"
           transform="matrix(1,0,0,0.99375062,-132.12756,399.06678)" />
        <path
           stroke-miterlimit="10"
           d="m 217.74244,632.10627 c 0,0 -4.102,-1.8762 -7.422,-2.45854 -3.32,-0.58234 -15.82,-0.38856 -20.442,-0.51774 -4.623,-0.12919 -14.974,-1.35846 -17.708,-2.45854 0,0.97089 0.065,3.55862 4.818,5.56401 4.752,2.00638 19.596,0.77612 24.219,0.9063 4.622,0.12918 14.778,3.23466 15.755,2.71691 0.977,-0.51774 0.78,-3.7524 0.78,-3.7524 z"
           id="path325"
           style="fill:#ffffff;fill-opacity:1;stroke:none;stroke-miterlimit:10"
           inkscape:connector-curvature="0" />
        <path
           stroke-miterlimit="10"
           d="m 209.99544,637.67028 c 0,-0.77612 -5.794,-1.74701 -8.008,-1.29386 -2.214,0.45315 -6.286,2.77455 -9.245,5.36923 -3.32,2.91169 -7.031,8.4757 -7.031,8.4757 0,0 9.701,-5.30464 19.401,-7.69958 1.758,-0.9699 4.883,-4.07537 4.883,-4.85149 z"
           id="path328"
           style="fill:#ffffff;fill-opacity:1;stroke:none;stroke-miterlimit:10"
           inkscape:connector-curvature="0" />
        <path
           stroke-miterlimit="10"
           d="m 196.77844,635.40651 c 0,0 -3.581,2.91169 -5.599,3.42844 -2.018,0.51775 -6.38,-0.32296 -10.612,1.16468 -4.232,1.48864 -9.917,8.19646 -11.306,10.26644 -0.521,-5.43482 -3.516,-12.09892 -5.729,-15.00961 2.344,-0.0646 5.447,1.05536 5.447,1.05536 0,0 2.018,1.9408 3.906,1.81161 1.888,-0.12919 3.19,-1.81161 5.534,-2.13458 2.344,-0.32396 18.359,-0.58234 18.359,-0.58234 z"
           id="path331"
           style="fill:#ffffff;fill-opacity:1;stroke:none;stroke-miterlimit:10"
           inkscape:connector-curvature="0" />
        <polygon
           stroke-miterlimit="10"
           points="291.927,253.255 297.526,249.023 298.568,254.167 295.312,257.878 291.992,257.747 "
           id="polygon334"
           style="fill:#ffffff;fill-opacity:1;stroke:none;stroke-miterlimit:10"
           transform="matrix(1,0,0,0.99375062,-132.12756,399.06678)" />
        <polygon
           stroke-miterlimit="10"
           points="295.312,244.987 297.721,245.703 290.234,251.562 287.174,251.302 287.109,248.242 "
           id="polygon337"
           style="fill:#ffffff;fill-opacity:1;stroke:none;stroke-miterlimit:10"
           transform="matrix(1,0,0,0.99375062,-132.12756,399.06678)" />
        <path
           stroke-miterlimit="10"
           d="m 162.59944,639.61107 -7.682,2.8471 -0.065,-2.78151 c 0,0 3.06,-3.62321 4.753,-3.62321 1.691,0 2.994,3.55762 2.994,3.55762 z"
           id="path340"
           style="fill:#ffffff;fill-opacity:1;stroke:none;stroke-miterlimit:10"
           inkscape:connector-curvature="0" />
        <polygon
           stroke-miterlimit="10"
           points="287.891,265.755 293.099,260.417 288.477,259.05 284.245,262.305 284.18,265.886 "
           id="polygon343"
           style="fill:#ffffff;fill-opacity:1;stroke:none;stroke-miterlimit:10"
           transform="matrix(1,0,0,0.99375062,-132.12756,399.06678)" />
        <polygon
           stroke-miterlimit="10"
           points="288.737,253.841 284.766,253.711 281.12,256.641 281.12,260.156 283.463,260.222 288.737,256.055 "
           id="polygon346"
           style="fill:#ffffff;fill-opacity:1;stroke:none;stroke-miterlimit:10"
           transform="matrix(1,0,0,0.99375062,-132.12756,399.06678)" />
        <polygon
           stroke-miterlimit="10"
           points="284.049,248.633 283.919,251.367 279.362,255.078 277.344,254.752 277.279,252.018 281.836,248.698 "
           id="polygon349"
           style="fill:#ffffff;fill-opacity:1;stroke:none;stroke-miterlimit:10"
           transform="matrix(1,0,0,0.99375062,-132.12756,399.06678)" />
        <polygon
           stroke-miterlimit="10"
           points="280.99,243.62 284.831,243.424 284.831,245.377 277.279,249.023 274.805,248.633 "
           id="polygon352"
           style="fill:#ffffff;fill-opacity:1;stroke:none;stroke-miterlimit:10"
           transform="matrix(1,0,0,0.99375062,-132.12756,399.06678)" />
        <polygon
           stroke-miterlimit="10"
           points="287.109,237.826 284.701,240.69 277.409,242.318 274.219,241.667 277.213,238.151 283.268,237.24 "
           id="polygon355"
           style="fill:#ffffff;fill-opacity:1;stroke:none;stroke-miterlimit:10"
           transform="matrix(1,0,0,0.99375062,-132.12756,399.06678)" />
        <path
           stroke-miterlimit="10"
           d="m 142.41644,642.19979 c -2.344,-0.77612 -3.776,-2.52313 -3.776,-2.52313 0,0 -4.297,1.81161 -5.469,3.62322 -0.225,0.3488 -1.042,2.97628 -0.195,3.49402 0.847,0.51775 3.581,0.38856 3.581,0.38856 0,0 3.776,-2.20116 5.859,-4.98267 z"
           id="path358"
           style="fill:#ffffff;fill-opacity:1;stroke:none;stroke-miterlimit:10"
           inkscape:connector-curvature="0" />
        <polygon
           stroke-miterlimit="10"
           points="274.935,254.623 274.74,251.042 270.898,250.912 268.229,252.799 268.685,254.167 "
           id="polygon361"
           style="fill:#ffffff;fill-opacity:1;stroke:none;stroke-miterlimit:10"
           transform="matrix(1,0,0,0.99375062,-132.12756,399.06678)" />
        <polygon
           stroke-miterlimit="10"
           points="278.255,257.292 274.935,257.031 272.461,259.31 272.331,262.109 274.87,261.849 278.646,259.57 "
           id="polygon364"
           style="fill:#ffffff;fill-opacity:1;stroke:none;stroke-miterlimit:10"
           transform="matrix(1,0,0,0.99375062,-132.12756,399.06678)" />
        <polygon
           stroke-miterlimit="10"
           points="281.25,262.63 281.185,264.909 276.042,267.383 272.787,267.383 273.307,264.388 278.385,262.109 "
           id="polygon367"
           style="fill:#ffffff;fill-opacity:1;stroke:none;stroke-miterlimit:10"
           transform="matrix(1,0,0,0.99375062,-132.12756,399.06678)" />
        <polygon
           stroke-miterlimit="10"
           points="269.466,262.63 269.271,265.755 264.844,268.229 262.37,268.294 262.305,265.495 266.406,262.305 "
           id="polygon370"
           style="fill:#ffffff;fill-opacity:1;stroke:none;stroke-miterlimit:10"
           transform="matrix(1,0,0,0.99375062,-132.12756,399.06678)" />
        <polygon
           stroke-miterlimit="10"
           points="270.898,256.315 270.312,258.333 267.057,260.026 264.193,260.156 264.127,257.878 267.773,255.859 "
           id="polygon373"
           style="fill:#ffffff;fill-opacity:1;stroke:none;stroke-miterlimit:10"
           transform="matrix(1,0,0,0.99375062,-132.12756,399.06678)" />
        <polygon
           stroke-miterlimit="10"
           points="265.452,252.213 265.299,253.906 261.719,257.031 257.812,256.966 257.877,254.167 261.545,250.564 263.412,250.608 263.194,252.518 "
           id="polygon376"
           style="fill:#ffffff;fill-opacity:1;stroke:none;stroke-miterlimit:10"
           transform="matrix(1,0,0,0.99375062,-132.12756,399.06678)" />
        <polygon
           stroke-miterlimit="10"
           points="261.198,259.766 261.198,262.956 255.99,266.797 250.716,265.56 251.367,263.411 256.706,259.44 "
           id="polygon379"
           style="fill:#ffffff;fill-opacity:1;stroke:none;stroke-miterlimit:10"
           transform="matrix(1,0,0,0.99375062,-132.12756,399.06678)" />
      </g>
    </g>
  </g>
</svg>
